STARTFONT 2.1
FONT -nil-FFT-medium-r-normal--12-120-72-72-c-60-iso8859-1
SIZE 12 72 72
FONTBOUNDINGBOX 6 13 0 -3
COMMENT "Generated by fontforge, http://fontforge.sourceforge.net"
STARTPROPERTIES 13
CAP_HEIGHT 10
POINT_SIZE 120
WEIGHT 10
RESOLUTION_X 72
RESOLUTION_Y 72
X_HEIGHT 5
QUAD_WIDTH 6
FAMILY_NAME "FFT"
WEIGHT_NAME "Medium"
SLANT "R"
CHARSET_REGISTRY "ISO8859"
CHARSET_ENCODING "1"
RESOLUTION 99
ENDPROPERTIES
CHARS 84
STARTCHAR $32
ENCODING 32
SWIDTH 500 0
DWIDTH 6 0
BBX 6 10 0 0
BITMAP
FC
84
84
84
84
84
84
84
84
FC
ENDCHAR
STARTCHAR $33
ENCODING 33
SWIDTH 23437 0
DWIDTH 6 0
BBX 3 9 2 -1
BITMAP
C0
E0
E0
E0
E0
C0
00
80
40
ENDCHAR
STARTCHAR $34
ENCODING 34
SWIDTH 23437 0
DWIDTH 6 0
BBX 5 3 0 6
BITMAP
90
D8
48
ENDCHAR
STARTCHAR $37
ENCODING 37
SWIDTH 583 0
DWIDTH 7 0
BBX 6 9 0 -1
BITMAP
E0
F4
FC
7C
38
7C
FC
5C
1C
ENDCHAR
STARTCHAR $39
ENCODING 39
SWIDTH 332 0
DWIDTH 4 0
BBX 2 3 1 6
BITMAP
80
C0
40
ENDCHAR
STARTCHAR $40
ENCODING 40
SWIDTH 333 0
DWIDTH 4 0
BBX 4 11 0 -2
BITMAP
20
70
E0
E0
C0
C0
C0
C0
60
20
10
ENDCHAR
STARTCHAR $41
ENCODING 41
SWIDTH 333 0
DWIDTH 4 0
BBX 4 11 0 -2
BITMAP
80
C0
60
60
30
30
70
70
F0
E0
40
ENDCHAR
STARTCHAR $42
ENCODING 42
SWIDTH 23437 0
DWIDTH 6 0
BBX 6 6 0 -1
BITMAP
20
B8
74
B8
74
10
ENDCHAR
STARTCHAR $43
ENCODING 43
SWIDTH 23437 0
DWIDTH 6 0
BBX 6 6 0 0
BITMAP
20
30
F8
7C
30
10
ENDCHAR
STARTCHAR $44
ENCODING 44
SWIDTH 333 0
DWIDTH 4 0
BBX 3 3 0 -2
BITMAP
40
E0
40
ENDCHAR
STARTCHAR $45
ENCODING 45
SWIDTH 23437 0
DWIDTH 6 0
BBX 6 2 0 2
BITMAP
F8
7C
ENDCHAR
STARTCHAR $46
ENCODING 46
SWIDTH 166 0
DWIDTH 2 0
BBX 2 2 0 -1
BITMAP
80
40
ENDCHAR
STARTCHAR $47
ENCODING 47
SWIDTH 23437 0
DWIDTH 6 0
BBX 6 10 0 -1
BITMAP
08
1C
1C
38
38
70
70
E0
E0
40
ENDCHAR
STARTCHAR $48
ENCODING 48
SWIDTH 23437 0
DWIDTH 6 0
BBX 6 9 0 -1
BITMAP
F8
F8
CC
CC
CC
CC
DC
FC
38
ENDCHAR
STARTCHAR $49
ENCODING 49
SWIDTH 332 0
DWIDTH 4 0
BBX 4 9 0 -1
BITMAP
40
E0
E0
60
60
60
60
E0
70
ENDCHAR
STARTCHAR $50
ENCODING 50
SWIDTH 23437 0
DWIDTH 6 0
BBX 6 9 0 -1
BITMAP
F8
F8
CC
5C
38
70
E0
F8
7C
ENDCHAR
STARTCHAR $51
ENCODING 51
SWIDTH 23437 0
DWIDTH 6 0
BBX 6 9 0 -1
BITMAP
F8
7C
18
30
18
88
CC
FC
78
ENDCHAR
STARTCHAR $52
ENCODING 52
SWIDTH 23437 0
DWIDTH 6 0
BBX 6 9 0 -1
BITMAP
70
78
F8
D8
D8
98
F8
7C
08
ENDCHAR
STARTCHAR $53
ENCODING 53
SWIDTH 23437 0
DWIDTH 6 0
BBX 6 9 0 -1
BITMAP
F8
FC
F8
F8
5C
1C
DC
F8
78
ENDCHAR
STARTCHAR $54
ENCODING 54
SWIDTH 23437 0
DWIDTH 6 0
BBX 6 9 0 -1
BITMAP
F8
FC
C4
F8
FC
CC
DC
FC
78
ENDCHAR
STARTCHAR $55
ENCODING 55
SWIDTH 23437 0
DWIDTH 6 0
BBX 6 9 0 -1
BITMAP
F8
FC
DC
78
30
30
30
30
10
ENDCHAR
STARTCHAR $56
ENCODING 56
SWIDTH 23437 0
DWIDTH 6 0
BBX 6 9 0 -1
BITMAP
F8
F8
DC
FC
F8
CC
DC
FC
78
ENDCHAR
STARTCHAR $57
ENCODING 57
SWIDTH 23437 0
DWIDTH 6 0
BBX 6 9 0 -1
BITMAP
F8
D8
8C
DC
FC
3C
38
70
20
ENDCHAR
STARTCHAR $58
ENCODING 58
SWIDTH 332 0
DWIDTH 4 0
BBX 2 5 1 0
BITMAP
80
40
00
80
40
ENDCHAR
STARTCHAR $59
ENCODING 59
SWIDTH 333 0
DWIDTH 4 0
BBX 3 5 0 -2
BITMAP
40
20
40
E0
40
ENDCHAR
STARTCHAR $63
ENCODING 63
SWIDTH 23437 0
DWIDTH 6 0
BBX 6 9 0 -1
BITMAP
F8
FC
DC
7C
38
30
10
20
10
ENDCHAR
STARTCHAR $64
ENCODING 64
SWIDTH 23437 0
DWIDTH 6 0
BBX 6 9 0 -1
BITMAP
70
F8
FC
EC
EC
FC
DC
78
3C
ENDCHAR
STARTCHAR $65
ENCODING 65
SWIDTH 23437 0
DWIDTH 6 0
BBX 6 9 0 -1
BITMAP
20
70
70
70
D8
F8
FC
CC
44
ENDCHAR
STARTCHAR $66
ENCODING 66
SWIDTH 23437 0
DWIDTH 6 0
BBX 6 9 0 -1
BITMAP
F8
F8
7C
7C
78
6C
FC
FC
78
ENDCHAR
STARTCHAR $67
ENCODING 67
SWIDTH 23437 0
DWIDTH 6 0
BBX 6 9 0 -1
BITMAP
70
F8
EC
C4
C0
C8
FC
7C
38
ENDCHAR
STARTCHAR $68
ENCODING 68
SWIDTH 23437 0
DWIDTH 6 0
BBX 6 9 0 -1
BITMAP
F0
F8
6C
6C
6C
6C
FC
FC
78
ENDCHAR
STARTCHAR $69
ENCODING 69
SWIDTH 23437 0
DWIDTH 6 0
BBX 6 9 0 -1
BITMAP
F8
7C
74
78
78
68
68
FC
7C
ENDCHAR
STARTCHAR $70
ENCODING 70
SWIDTH 23437 0
DWIDTH 6 0
BBX 6 9 0 -1
BITMAP
F8
7C
74
78
78
68
60
E0
70
ENDCHAR
STARTCHAR $71
ENCODING 71
SWIDTH 23437 0
DWIDTH 6 0
BBX 6 9 0 -1
BITMAP
F8
DC
C4
F8
DC
CC
FC
FC
38
ENDCHAR
STARTCHAR $72
ENCODING 72
SWIDTH 23437 0
DWIDTH 6 0
BBX 6 9 0 -1
BITMAP
88
CC
CC
FC
FC
CC
CC
CC
44
ENDCHAR
STARTCHAR $73
ENCODING 73
SWIDTH 332 0
DWIDTH 4 0
BBX 4 9 0 -1
BITMAP
E0
70
60
60
60
60
60
E0
70
ENDCHAR
STARTCHAR $74
ENCODING 74
SWIDTH 23437 0
DWIDTH 6 0
BBX 6 10 0 -2
BITMAP
08
0C
0C
0C
0C
0C
8C
FC
7C
38
ENDCHAR
STARTCHAR $75
ENCODING 75
SWIDTH 23437 0
DWIDTH 6 0
BBX 6 9 0 -1
BITMAP
88
DC
F8
F0
E0
F0
D8
CC
44
ENDCHAR
STARTCHAR $76
ENCODING 76
SWIDTH 23437 0
DWIDTH 6 0
BBX 6 9 0 -1
BITMAP
E0
70
60
60
60
60
68
FC
7C
ENDCHAR
STARTCHAR $77
ENCODING 77
SWIDTH 23437 0
DWIDTH 6 0
BBX 6 9 0 -1
BITMAP
88
DC
FC
FC
FC
EC
CC
CC
44
ENDCHAR
STARTCHAR $78
ENCODING 78
SWIDTH 23437 0
DWIDTH 6 0
BBX 6 9 0 -1
BITMAP
88
CC
EC
EC
FC
FC
DC
CC
44
ENDCHAR
STARTCHAR $79
ENCODING 79
SWIDTH 23437 0
DWIDTH 6 0
BBX 6 9 0 -1
BITMAP
F8
F8
CC
CC
CC
CC
FC
7C
38
ENDCHAR
STARTCHAR $80
ENCODING 80
SWIDTH 23437 0
DWIDTH 6 0
BBX 6 9 0 -1
BITMAP
F0
78
6C
6C
7C
7C
78
E0
70
ENDCHAR
STARTCHAR $81
ENCODING 81
SWIDTH 23437 0
DWIDTH 6 0
BBX 6 10 0 -2
BITMAP
F8
F8
CC
CC
CC
DC
FC
7C
38
0C
ENDCHAR
STARTCHAR $82
ENCODING 82
SWIDTH 582 0
DWIDTH 7 0
BBX 6 9 0 -1
BITMAP
F8
78
6C
7C
7C
78
78
EC
74
ENDCHAR
STARTCHAR $83
ENCODING 83
SWIDTH 23437 0
DWIDTH 6 0
BBX 6 9 0 -1
BITMAP
F8
FC
C4
F0
38
1C
DC
FC
78
ENDCHAR
STARTCHAR $84
ENCODING 84
SWIDTH 23437 0
DWIDTH 6 0
BBX 6 9 0 -1
BITMAP
F8
FC
74
30
30
30
30
70
38
ENDCHAR
STARTCHAR $85
ENCODING 85
SWIDTH 23437 0
DWIDTH 6 0
BBX 6 9 0 -1
BITMAP
88
CC
CC
CC
CC
CC
FC
FC
78
ENDCHAR
STARTCHAR $86
ENCODING 86
SWIDTH 23437 0
DWIDTH 6 0
BBX 6 9 0 -1
BITMAP
88
DC
DC
D8
78
70
70
30
20
ENDCHAR
STARTCHAR $87
ENCODING 87
SWIDTH 23437 0
DWIDTH 6 0
BBX 6 9 0 -1
BITMAP
88
AC
AC
FC
FC
F8
F8
50
50
ENDCHAR
STARTCHAR $88
ENCODING 88
SWIDTH 23437 0
DWIDTH 6 0
BBX 6 9 0 -1
BITMAP
88
DC
78
70
70
70
D8
CC
44
ENDCHAR
STARTCHAR $89
ENCODING 89
SWIDTH 23437 0
DWIDTH 6 0
BBX 6 9 0 -1
BITMAP
88
DC
DC
F8
70
70
30
30
10
ENDCHAR
STARTCHAR $90
ENCODING 90
SWIDTH 23437 0
DWIDTH 6 0
BBX 6 9 0 -1
BITMAP
F8
7C
18
30
60
C0
C0
F8
7C
ENDCHAR
STARTCHAR $91
ENCODING 91
SWIDTH 250 0
DWIDTH 3 0
BBX 3 11 0 -2
BITMAP
C0
E0
C0
C0
C0
C0
C0
C0
C0
C0
60
ENDCHAR
STARTCHAR $92
ENCODING 92
SWIDTH 23437 0
DWIDTH 6 0
BBX 6 10 0 -1
BITMAP
40
E0
E0
70
70
38
38
1C
1C
08
ENDCHAR
STARTCHAR $93
ENCODING 93
SWIDTH 250 0
DWIDTH 3 0
BBX 3 11 0 -2
BITMAP
C0
60
60
60
60
60
60
60
60
E0
60
ENDCHAR
STARTCHAR $95
ENCODING 95
SWIDTH 23437 0
DWIDTH 6 0
BBX 6 2 0 -2
BITMAP
F8
7C
ENDCHAR
STARTCHAR $97
ENCODING 97
SWIDTH 332 0
DWIDTH 4 0
BBX 4 7 0 -1
BITMAP
E0
70
F0
F0
F0
F0
70
ENDCHAR
STARTCHAR $98
ENCODING 98
SWIDTH 332 0
DWIDTH 4 0
BBX 4 9 0 -1
BITMAP
80
C0
E0
E0
F0
F0
F0
F0
60
ENDCHAR
STARTCHAR $99
ENCODING 99
SWIDTH 332 0
DWIDTH 4 0
BBX 4 7 0 -1
BITMAP
E0
F0
D0
C0
F0
F0
70
ENDCHAR
STARTCHAR $100
ENCODING 100
SWIDTH 332 0
DWIDTH 4 0
BBX 4 9 0 -1
BITMAP
20
30
F0
F0
F0
F0
F0
F0
70
ENDCHAR
STARTCHAR $101
ENCODING 101
SWIDTH 332 0
DWIDTH 4 0
BBX 4 7 0 -1
BITMAP
E0
F0
F0
F0
F0
E0
70
ENDCHAR
STARTCHAR $102
ENCODING 102
SWIDTH 332 0
DWIDTH 4 0
BBX 4 9 0 -1
BITMAP
60
70
E0
F0
60
60
60
60
20
ENDCHAR
STARTCHAR $103
ENCODING 103
SWIDTH 332 0
DWIDTH 4 0
BBX 4 9 0 -3
BITMAP
E0
F0
F0
F0
F0
F0
70
F0
70
ENDCHAR
STARTCHAR $104
ENCODING 104
SWIDTH 332 0
DWIDTH 4 0
BBX 4 9 0 -1
BITMAP
80
C0
E0
F0
F0
F0
F0
F0
50
ENDCHAR
STARTCHAR $105
ENCODING 105
SWIDTH 164 0
DWIDTH 2 0
BBX 2 8 0 -1
BITMAP
80
40
80
C0
C0
C0
C0
40
ENDCHAR
STARTCHAR $106
ENCODING 106
SWIDTH 332 0
DWIDTH 4 0
BBX 4 10 0 -3
BITMAP
20
10
20
30
30
30
30
70
F0
60
ENDCHAR
STARTCHAR $107
ENCODING 107
SWIDTH 332 0
DWIDTH 4 0
BBX 4 9 0 -1
BITMAP
80
C0
E0
F0
F0
E0
F0
F0
50
ENDCHAR
STARTCHAR $108
ENCODING 108
SWIDTH 164 0
DWIDTH 2 0
BBX 2 9 0 -1
BITMAP
80
C0
C0
C0
C0
C0
C0
C0
40
ENDCHAR
STARTCHAR $109
ENCODING 109
SWIDTH 23437 0
DWIDTH 6 0
BBX 6 7 0 -1
BITMAP
F8
FC
FC
FC
FC
FC
54
ENDCHAR
STARTCHAR $110
ENCODING 110
SWIDTH 332 0
DWIDTH 4 0
BBX 4 7 0 -1
BITMAP
E0
F0
F0
F0
F0
F0
50
ENDCHAR
STARTCHAR $111
ENCODING 111
SWIDTH 332 0
DWIDTH 4 0
BBX 4 7 0 -1
BITMAP
E0
F0
F0
F0
F0
F0
60
ENDCHAR
STARTCHAR $112
ENCODING 112
SWIDTH 332 0
DWIDTH 4 0
BBX 4 9 0 -3
BITMAP
E0
F0
F0
F0
F0
F0
E0
C0
40
ENDCHAR
STARTCHAR $113
ENCODING 113
SWIDTH 332 0
DWIDTH 4 0
BBX 4 9 0 -3
BITMAP
E0
F0
F0
F0
F0
F0
70
30
10
ENDCHAR
STARTCHAR $114
ENCODING 114
SWIDTH 332 0
DWIDTH 4 0
BBX 4 7 0 -1
BITMAP
E0
F0
D0
C0
C0
C0
40
ENDCHAR
STARTCHAR $115
ENCODING 115
SWIDTH 332 0
DWIDTH 4 0
BBX 4 7 0 -1
BITMAP
E0
F0
E0
70
70
F0
70
ENDCHAR
STARTCHAR $116
ENCODING 116
SWIDTH 332 0
DWIDTH 4 0
BBX 4 8 0 -1
BITMAP
40
E0
F0
60
60
60
60
30
ENDCHAR
STARTCHAR $117
ENCODING 117
SWIDTH 332 0
DWIDTH 4 0
BBX 4 7 0 -1
BITMAP
A0
F0
F0
F0
F0
F0
70
ENDCHAR
STARTCHAR $118
ENCODING 118
SWIDTH 332 0
DWIDTH 4 0
BBX 4 8 0 -2
BITMAP
A0
F0
F0
F0
70
60
60
20
ENDCHAR
STARTCHAR $119
ENCODING 119
SWIDTH 23437 0
DWIDTH 6 0
BBX 6 7 0 -1
BITMAP
A8
FC
FC
FC
7C
78
28
ENDCHAR
STARTCHAR $120
ENCODING 120
SWIDTH 332 0
DWIDTH 4 0
BBX 4 7 0 -1
BITMAP
E0
F0
F0
E0
F0
F0
50
ENDCHAR
STARTCHAR $121
ENCODING 121
SWIDTH 332 0
DWIDTH 4 0
BBX 4 9 0 -3
BITMAP
A0
F0
F0
F0
F0
70
E0
E0
40
ENDCHAR
STARTCHAR $122
ENCODING 122
SWIDTH 332 0
DWIDTH 4 0
BBX 4 7 0 -1
BITMAP
E0
70
70
E0
E0
E0
70
ENDCHAR
STARTCHAR $160
ENCODING 160
SWIDTH 1000 0
DWIDTH 6 0
BBX 6 10 0 0
BITMAP
FC
84
84
84
84
84
84
84
84
FC
ENDCHAR
ENDFONT
